<?xml version="1.0" standalone="no"?>
<!DOCTYPE svg PUBLIC "-//W3C//DTD SVG 20010904//EN"
 "http://www.w3.org/TR/2001/REC-SVG-20010904/DTD/svg10.dtd">
<svg version="1.0" xmlns="http://www.w3.org/2000/svg"
 width="700.000000pt" height="700.000000pt" viewBox="0 0 700.000000 700.000000"
 preserveAspectRatio="xMidYMid meet">
<metadata>
Created by potrace 1.14, written by Peter Selinger 2001-2017
</metadata>
<g transform="translate(0.000000,700.000000) scale(0.100000,-0.100000)"
fill="#000000" stroke="none">
<path d="M3205 6989 c-1428 -133 -2609 -1146 -2954 -2534 -65 -262 -94 -508
-94 -805 1 -538 116 -1018 357 -1495 187 -368 384 -629 712 -945 225 -216 574
-453 864 -587 457 -211 917 -313 1410 -313 768 0 1486 256 2104 752 133 107
389 365 500 503 398 497 647 1090 722 1720 20 168 23 540 5 695 -90 792 -399
1456 -933 2006 -530 545 -1208 884 -1978 989 -138 19 -572 28 -715 14z m685
-624 c605 -94 1125 -353 1540 -766 928 -925 1072 -2367 345 -3458 -194 -290
-468 -566 -758 -759 -342 -229 -709 -372 -1127 -437 -160 -25 -512 -31 -684
-11 -363 42 -712 153 -1021 323 -517 286 -955 765 -1189 1299 -378 862 -291
1848 230 2621 404 600 1019 1015 1716 1157 107 22 164 31 328 50 85 10 520 -3
620 -19z"/>
<path d="M3798 5013 l-906 -1061 -302 -1362 c-166 -749 -300 -1363 -298 -1365
3 -3 1720 2000 1796 2095 18 23 76 272 322 1381 165 744 299 1358 297 1363 -2
5 -411 -468 -909 -1051z m-167 -1090 c148 -66 217 -252 146 -390 -39 -76 -80
-118 -149 -153 -147 -73 -316 -13 -398 142 -28 52 -34 74 -34 128 -2 132 80
245 206 286 59 19 171 13 229 -13z"/>
</g>
</svg>
