<?xml version="1.0" encoding="UTF-8" standalone="no"?>
<!-- Created with Inkscape (http://www.inkscape.org/) -->

<svg
   width="512"
   height="512"
   viewBox="0 0 512 512"
   version="1.1"
   id="svg5"
   sodipodi:docname="Eighth_Note_Inverted.svg"
   inkscape:version="1.1.2 (0a00cf5339, 2022-02-04)"
   xmlns:inkscape="http://www.inkscape.org/namespaces/inkscape"
   xmlns:sodipodi="http://sodipodi.sourceforge.net/DTD/sodipodi-0.dtd"
   xmlns="http://www.w3.org/2000/svg"
   xmlns:svg="http://www.w3.org/2000/svg">
  <sodipodi:namedview
     id="namedview7"
     pagecolor="#ffffff"
     bordercolor="#666666"
     borderopacity="1.0"
     inkscape:pageshadow="2"
     inkscape:pageopacity="0.0"
     inkscape:pagecheckerboard="0"
     inkscape:document-units="px"
     showgrid="false"
     inkscape:object-paths="false"
     inkscape:snap-intersection-paths="true"
     inkscape:snap-smooth-nodes="true"
     inkscape:zoom="1.2926997"
     inkscape:cx="70.7821"
     inkscape:cy="201.12947"
     inkscape:window-width="2560"
     inkscape:window-height="1515"
     inkscape:window-x="0"
     inkscape:window-y="560"
     inkscape:window-maximized="1"
     inkscape:current-layer="layer1" />
  <defs
     id="defs2" />
  <g
     inkscape:label="Layer 1"
     inkscape:groupmode="layer"
     id="layer1">
    <path
       id="path31"
       style="fill:none;fill-rule:evenodd;stroke:#000000;stroke-width:0.936492;stroke-opacity:1"
       d="M 295.60742 30.822266 A 114.88166 62.90815 1.9827747 0 0 179.73047 82.539062 L 179.63086 82.513672 L 87.863281 452.75586 A 24.428589 24.428589 0 0 0 105.69727 482.34375 A 24.428589 24.428589 0 0 0 135.28516 464.50977 C 140.30748 444.24686 157.86523 440.74805 157.86523 440.74805 C 157.86523 440.74805 349.22663 401.32377 401.48242 249.4707 C 410.29739 223.85479 398.8457 184.24609 398.8457 184.24609 C 368.33549 118.49048 367.61166 168.20924 368.95312 179.17188 C 368.95312 179.17188 389.83299 320.33066 161.67188 358.05078 L 216.16406 138.19531 A 114.88166 62.90815 1.9827747 0 0 291.25391 156.5625 A 114.88166 62.90815 1.9827747 0 0 408.24414 97.667969 A 114.88166 62.90815 1.9827747 0 0 295.60742 30.822266 z " />
  </g>
</svg>
