<?xml version="1.0" encoding="UTF-8" standalone="no"?>
<!-- Created with Inkscape (http://www.inkscape.org/) -->

<svg
   width="512"
   height="512"
   viewBox="0 0 512 512"
   version="1.1"
   id="svg5"
   sodipodi:docname="eighth_note_both.svg"
   inkscape:version="1.1.2 (0a00cf5339, 2022-02-04)"
   xmlns:inkscape="http://www.inkscape.org/namespaces/inkscape"
   xmlns:sodipodi="http://sodipodi.sourceforge.net/DTD/sodipodi-0.dtd"
   xmlns="http://www.w3.org/2000/svg"
   xmlns:svg="http://www.w3.org/2000/svg">
  <sodipodi:namedview
     id="namedview7"
     pagecolor="#ffffff"
     bordercolor="#666666"
     borderopacity="1.0"
     inkscape:pageshadow="2"
     inkscape:pageopacity="0.0"
     inkscape:pagecheckerboard="0"
     inkscape:document-units="px"
     showgrid="false"
     inkscape:object-paths="false"
     inkscape:snap-intersection-paths="true"
     inkscape:snap-smooth-nodes="true"
     inkscape:zoom="1.2926997"
     inkscape:cx="70.395311"
     inkscape:cy="201.12946"
     inkscape:window-width="2560"
     inkscape:window-height="1515"
     inkscape:window-x="0"
     inkscape:window-y="560"
     inkscape:window-maximized="1"
     inkscape:current-layer="layer1" />
  <defs
     id="defs2" />
  <g
     inkscape:label="Layer 1"
     inkscape:groupmode="layer"
     id="layer1">
    <path
       id="path31"
       style="fill:none;fill-rule:evenodd;stroke:#000000;stroke-width:0.936492;stroke-opacity:1"
       d="M 262.47587,418.49653 A 114.88166,62.90815 2.1461998 0 1 145.31893,477.05828 114.88166,62.90815 2.1461998 0 1 32.873729,409.892 114.88166,62.90815 2.1461998 0 1 150.03068,351.33024 114.88166,62.90815 2.1461998 0 1 262.47587,418.49653 Z" />
    <rect
       style="fill:none;fill-rule:evenodd;stroke:#000000;stroke-width:1.02483;stroke-opacity:1"
       id="rect135"
       width="48.85717"
       height="381.44501"
       x="308.31857"
       y="-32.165028"
       ry="0"
       transform="rotate(14.08408)" />
    <circle
       style="fill:none;fill-rule:evenodd;stroke:#000000;stroke-opacity:1"
       id="path724"
       cx="332.74716"
       cy="-32.165028"
       r="24.428589"
       transform="rotate(14.08408)" />
    <path
       style="fill:none;stroke:#000000;stroke-width:1px;stroke-linecap:butt;stroke-linejoin:miter;stroke-opacity:1"
       d="m 306.87764,43.829811 c -5.08009,20.248505 -22.64735,23.696224 -22.64735,23.696224 0,0 -191.473567,38.878815 -244.162272,190.582225 -8.88799,25.59065 2.450696,65.23148 2.450696,65.23148 30.322527,65.84236 31.189111,16.12599 29.878935,5.15957 0,0 -20.772023,-142.61955 211.009291,-178.8533 88.24398,-13.79494 23.4707,-105.816199 23.4707,-105.816199"
       id="path843-7"
       sodipodi:nodetypes="ccsscsc" />
    <path
       style="fill:none;stroke:#000000;stroke-width:1px;stroke-linecap:butt;stroke-linejoin:miter;stroke-opacity:1"
       d="m 354.26615,55.718984 c -5.0801,20.248505 8.77908,31.580716 8.77908,31.580716 0,0 150.44339,124.66143 125.2787,283.27026 -4.24498,26.75552 -32.95367,56.34898 -32.95367,56.34898 -57.81292,43.73029 -35.10772,-0.50703 -28.77589,-9.55617 0,0 85.63702,-115.92289 -101.58894,-257.28023 -71.28084,-53.81769 29.26072,-104.363556 29.26072,-104.363556"
       id="path843-7-5"
       sodipodi:nodetypes="ccsscsc" />
  </g>
</svg>
