<?xml version="1.0" encoding="UTF-8" standalone="no"?>
<!-- Created with Inkscape (http://www.inkscape.org/) -->

<svg
   width="512"
   height="512"
   viewBox="0 0 512 512"
   version="1.1"
   id="svg5"
   sodipodi:docname="eighth_note.svg"
   inkscape:version="1.1.2 (0a00cf5339, 2022-02-04)"
   xmlns:inkscape="http://www.inkscape.org/namespaces/inkscape"
   xmlns:sodipodi="http://sodipodi.sourceforge.net/DTD/sodipodi-0.dtd"
   xmlns="http://www.w3.org/2000/svg"
   xmlns:svg="http://www.w3.org/2000/svg">
  <sodipodi:namedview
     id="namedview7"
     pagecolor="#ffffff"
     bordercolor="#666666"
     borderopacity="1.0"
     inkscape:pageshadow="2"
     inkscape:pageopacity="0.0"
     inkscape:pagecheckerboard="0"
     inkscape:document-units="px"
     showgrid="false"
     inkscape:object-paths="false"
     inkscape:snap-intersection-paths="true"
     inkscape:snap-smooth-nodes="true"
     inkscape:zoom="1.2926997"
     inkscape:cx="70.395311"
     inkscape:cy="201.12946"
     inkscape:window-width="2560"
     inkscape:window-height="1515"
     inkscape:window-x="0"
     inkscape:window-y="560"
     inkscape:window-maximized="1"
     inkscape:current-layer="layer1" />
  <defs
     id="defs2" />
  <g
     inkscape:label="Layer 1"
     inkscape:groupmode="layer"
     id="layer1">
    <path
       id="path31"
       style="fill:none;fill-rule:evenodd;stroke:#000000;stroke-width:0.936492;stroke-opacity:1"
       d="M 329.59961 25.365234 A 24.428589 24.428589 0 0 0 306.87695 43.830078 L 225.10742 369.75391 A 114.88166 62.90815 2.1461998 0 0 150.03125 351.33008 A 114.88166 62.90815 2.1461998 0 0 32.873047 409.89258 A 114.88166 62.90815 2.1461998 0 0 145.31836 477.05859 A 114.88166 62.90815 2.1461998 0 0 261.3418 425.67188 L 261.44336 425.69727 L 327.57617 162.10156 C 511.31139 302.53708 426.59375 417.36328 426.59375 417.36328 C 420.26192 426.41242 397.55817 470.64826 455.37109 426.91797 C 455.37109 426.91797 484.07924 397.32583 488.32422 370.57031 C 513.48891 211.96148 363.04492 87.298828 363.04492 87.298828 C 363.04492 87.298828 349.18552 75.967255 354.26562 55.71875 A 24.428589 24.428589 0 0 0 336.51562 26.080078 A 24.428589 24.428589 0 0 0 329.59961 25.365234 z " />
  </g>
</svg>
